<svg width="115" height="61" viewBox="0 0 115 61" fill="none" xmlns="http://www.w3.org/2000/svg">
<path d="M41.9614 42.5645V36.3145H40.3989V34.752H41.9614V33.1895H43.5239V34.752H45.0864V36.3145H43.5239V42.5645H41.9614ZM43.5239 33.1895V31.627H46.6489V33.1895H43.5239ZM56.2114 37.877V36.3145H57.7739V37.877H56.2114ZM49.9614 42.5645V34.752H51.5239V36.3145H53.0864V37.877H51.5239V42.5645H49.9614ZM53.0864 36.3145V34.752H56.2114V36.3145H53.0864ZM62.6489 42.5645V41.002H65.7739V42.5645H62.6489ZM61.0864 41.002V36.3145H62.6489V41.002H61.0864ZM67.3364 42.5645V41.002H65.7739V39.4395H67.3364V36.3145H62.6489V34.752H68.8989V42.5645H67.3364ZM78.4614 42.5645V36.3145H80.0239V42.5645H78.4614ZM72.2114 42.5645V34.752H73.7739V36.3145H75.3364V37.877H73.7739V42.5645H72.2114ZM75.3364 36.3145V34.752H78.4614V36.3145H75.3364Z" fill="white"/>
<path d="M41.9614 56.5645V55.002H48.2114V56.5645H41.9614ZM40.3989 55.002V50.3145H41.9614V51.877H46.6489V50.3145H48.2114V53.4395H41.9614V55.002H40.3989ZM41.9614 50.3145V48.752H46.6489V50.3145H41.9614ZM57.7739 56.5645V50.3145H59.3364V56.5645H57.7739ZM51.5239 56.5645V48.752H53.0864V50.3145H54.6489V51.877H53.0864V56.5645H51.5239ZM54.6489 50.3145V48.752H57.7739V50.3145H54.6489ZM73.1714 56.5645V55.002H77.8589V56.5645H73.1714ZM71.6089 55.002V50.3145H73.1714V55.002H71.6089ZM77.8589 55.002V50.3145H79.4214V55.002H77.8589ZM73.1714 50.3145V48.752H77.8589V50.3145H73.1714ZM88.9839 51.877V50.3145H90.5464V51.877H88.9839ZM82.7339 56.5645V48.752H84.2964V50.3145H85.8589V51.877H84.2964V56.5645H82.7339ZM85.8589 50.3145V48.752H88.9839V50.3145H85.8589ZM95.4214 56.5645V55.002H101.671V56.5645H95.4214ZM93.8589 55.002V50.3145H95.4214V51.877H100.109V50.3145H101.671V53.4395H95.4214V55.002H93.8589ZM95.4214 50.3145V48.752H100.109V50.3145H95.4214ZM104.984 56.5645V55.002H112.796V56.5645H104.984Z" fill="white"/>
<path d="M66.1489 56.5645V54.8145H67.8989V56.5645H66.1489ZM64.3989 54.8145V53.0645H66.1489V54.8145H64.3989ZM62.6489 53.0645V51.3145H64.3989V53.0645H62.6489ZM64.3989 51.3145V49.5645H66.1489V51.3145H64.3989ZM66.1489 49.5645V47.8145H67.8989V49.5645H66.1489Z" fill="#764FFF"/>
<path fill-rule="evenodd" clip-rule="evenodd" d="M6.64905 25.7501L4.95913 28.5156L12.3152 30.2934C13.6407 30.7872 16.7687 32.1305 18.6773 33.5527C21.063 35.3305 24.244 36.7133 25.2381 36.812C26.2322 36.9108 27.9221 37.0096 31.1031 33.9478C33.8056 31.3466 36.5798 30.2424 40.462 28.6973L40.4622 28.6972C41.1496 28.4236 41.8717 28.1362 42.6343 27.8242L40.9444 25.7501L43.5289 23.4785C41.9053 21.108 38.4194 16.1104 37.4651 15.0832C38.1941 13.8322 39.3737 9.7103 38.2604 3.23117C36.3385 4.12007 31.9182 6.64851 29.612 9.65104C27.4582 9.35474 22.3553 8.74238 19.1743 8.66337C17.0205 6.19419 12.4942 1.11755 11.6194 0.564453C10.4596 2.44103 8.23955 8.24854 8.63718 16.466L2.87159 23.4785C3.83252 24.104 5.93332 25.434 6.64905 25.7501ZM16.0927 33.9478C17.5175 35.2647 21.1425 38.096 24.244 38.8861C27.974 39.8323 29.9299 37.5052 31.427 35.7241C31.8051 35.2741 32.154 34.8591 32.4948 34.5404C33.5551 36.5486 35.6758 41.9874 35.6758 47.6764V57.3556C35.7421 57.8165 35.4969 58.7186 33.9859 58.6396C32.4749 58.5606 31.6995 58.6067 31.5007 58.6396C31.07 58.6725 30.2283 58.4618 30.3078 57.3556C30.3874 56.2494 30.341 55.1827 30.3078 54.7877C29.0487 54.5243 26.0731 54.0173 24.244 54.0963C24.0453 54.1049 23.8542 54.1127 23.67 54.1203L23.6659 54.1204C21.7337 54.1996 20.5784 54.2469 19.6713 54.7877C19.2464 55.041 19.1121 55.7816 18.9734 56.5466C18.7876 57.5712 18.5938 58.6396 17.6832 58.6396H14.0051C13.5744 58.6725 12.6333 58.4618 12.3152 57.3556C11.9971 56.2494 11.8513 54.2609 11.8182 53.4049C10.791 54.1292 7.86181 55.1432 4.36269 53.4049C-0.0112012 51.232 -0.309421 45.2072 1.28109 43.2319C2.87159 41.2565 2.87159 34.1453 1.77812 32.4663C3.69998 32.8613 8.39861 34.4614 11.8182 37.7009C11.4206 39.5446 10.8639 44.3183 11.8182 48.6641C11.8513 45.5694 12.7526 38.2935 16.0927 33.9478ZM16.7886 40.3674C15.7945 40.6966 14.1046 41.8884 15.2975 44.0217C16.7886 46.6885 19.1744 48.17 19.9696 48.4663C20.7649 48.7626 23.0512 48.565 22.5542 46.2934C22.4865 45.9839 22.4298 45.625 22.3689 45.239L22.3689 45.2389C21.9827 42.7916 21.4252 39.2583 16.7886 40.3674ZM30.5067 40.3674C29.6783 40.4003 27.8625 41.1772 27.2263 44.0217C26.431 47.5774 26.431 47.6761 27.8227 48.4663C29.2144 49.2564 32.1966 46.1946 32.9919 44.9106C33.7871 43.6267 34.483 40.3674 30.5067 40.3674ZM16.6899 19.0336C18.5986 16.9793 23.4496 13.8977 25.6365 12.6137C29.6923 15.1422 32.3631 18.3422 33.1915 19.6262C32.1576 20.7324 27.7241 23.9061 25.6365 25.3547C23.0122 24.0115 18.5787 20.581 16.6899 19.0336ZM13.211 25.3547L18.4795 28.219C19.1091 28.5153 20.3881 29.503 20.4677 31.0832C19.1754 30.4248 16.2528 28.9301 14.9009 28.219C13.211 27.3301 12.8134 25.8486 13.211 25.3547ZM30.3089 31.0832L34.7822 27.8239C35.2461 27.4947 36.0944 26.54 35.7763 25.3547L31.5018 28.6141C31.1042 28.9104 30.3089 29.819 30.3089 31.0832ZM27.8242 32.7624C25.8361 31.7352 24.2787 32.3344 23.7485 32.7624L25.7367 34.3427L27.8242 32.7624ZM16.9871 10.0458C15.6617 10.9018 12.4939 13.1471 10.4263 15.2804C10.0618 13.2722 9.88948 8.2087 12.1162 4.02097C13.4085 5.37079 16.1919 8.4655 16.9871 10.0458ZM31.8981 10.6384C32.8259 9.28856 35.1587 6.4704 37.0673 5.99632C37.1998 7.57659 37.2661 11.4483 36.4708 14.2928C35.6756 13.4697 33.6477 11.5865 31.8981 10.6384Z" fill="white"/>
<ellipse cx="25.6369" cy="18.8369" rx="1.09347" ry="2.86425" fill="white"/>
</svg>
